# xmcd CD database file
#
# Track frame offsets:
#	150
#	22812
#	45535
#	69305
#	90425
#	114842
#	123687
#	145402
#	170565
#	194115
#
# Disc length: 2873 seconds
#
# Revision: 4
# Processed by: cddbd v1.5.1PL2 Copyright (c) Steve Scherf et al.
# Submitted via: CDex 1.70beta2
#
DISCID=860b370a
DTITLE=Chage and Aska - NOT AT ALL
DYEAR=2001
DGENRE=JPop
TTITLE0=not at all
TTITLE1=ふたりなら
TTITLE2=鏡が映したふたりでも
TTITLE3=アジアンレストランにて
TTITLE4=パラシュートの部屋で
TTITLE5=凛 
TTITLE6=C-46
TTITLE7=夢の飛礫
TTITLE8=ロケットの樹の下で
TTITLE9=告白（NOT AT ALL）
EXTD=YEAR: 2001
EXTT0=
EXTT1=
EXTT2=
EXTT3=
EXTT4=
EXTT5=
EXTT6=
EXTT7=
EXTT8=
EXTT9=
PLAYORDER=
